name C:\Users\u0150099\Documents\master_thesis\3dpredictsim\Results\debug\Fal_s1_mtjc2_sc_cspx10_oy2_TrackAnkleQSubtQ_ATx70_MTc2_MTPm_k1_d01_MTJm_nl_MG_exp5_table_d01_PF_Gefen2002_xv1_ls146_ig21_wAk5e+04_wa2e+03_wpM1e+03.mot
datacolumns 128
datarows 4
range 0.00000000 0.03604236
endheader
time	pelvis_tilt	pelvis_list	pelvis_rotation	pelvis_tx	pelvis_ty	pelvis_tz	hip_flexion_l	hip_adduction_l	hip_rotation_l	hip_flexion_r	hip_adduction_r	hip_rotation_r	knee_angle_l	knee_angle_r	ankle_angle_l	ankle_angle_r	subtalar_angle_l	subtalar_angle_r	mtj_angle_l	mtj_angle_r	mtp_angle_l	mtp_angle_r	lumbar_extension	lumbar_bending	lumbar_rotation	arm_flex_l	arm_add_l	arm_rot_l	arm_flex_r	arm_add_r	arm_rot_r	elbow_flex_l	elbow_flex_r	pro_sup_l	pro_sup_r	glut_med1_l/activation	glut_med2_l/activation	glut_med3_l/activation	glut_min1_l/activation	glut_min2_l/activation	glut_min3_l/activation	semimem_l/activation	semiten_l/activation	bifemlh_l/activation	bifemsh_l/activation	sar_l/activation	add_long_l/activation	add_brev_l/activation	add_mag1_l/activation	add_mag2_l/activation	add_mag3_l/activation	tfl_l/activation	pect_l/activation	grac_l/activation	glut_max1_l/activation	glut_max2_l/activation	glut_max3_l/activation	iliacus_l/activation	psoas_l/activation	quad_fem_l/activation	gem_l/activation	peri_l/activation	rect_fem_l/activation	vas_med_l/activation	vas_int_l/activation	vas_lat_l/activation	med_gas_l/activation	lat_gas_l/activation	soleus_l/activation	tib_post_l/activation	flex_dig_l/activation	flex_hal_l/activation	tib_ant_l/activation	per_brev_l/activation	per_long_l/activation	per_tert_l/activation	ext_dig_l/activation	ext_hal_l/activation	ercspn_l/activation	intobl_l/activation	extobl_l/activation	glut_med1_r/activation	glut_med2_r/activation	glut_med3_r/activation	glut_min1_r/activation	glut_min2_r/activation	glut_min3_r/activation	semimem_r/activation	semiten_r/activation	bifemlh_r/activation	bifemsh_r/activation	sar_r/activation	add_long_r/activation	add_brev_r/activation	add_mag1_r/activation	add_mag2_r/activation	add_mag3_r/activation	tfl_r/activation	pect_r/activation	grac_r/activation	glut_max1_r/activation	glut_max2_r/activation	glut_max3_r/activation	iliacus_r/activation	psoas_r/activation	quad_fem_r/activation	gem_r/activation	peri_r/activation	rect_fem_r/activation	vas_med_r/activation	vas_int_r/activation	vas_lat_r/activation	med_gas_r/activation	lat_gas_r/activation	soleus_r/activation	tib_post_r/activation	flex_dig_r/activation	flex_hal_r/activation	tib_ant_r/activation	per_brev_r/activation	per_long_r/activation	per_tert_r/activation	ext_dig_r/activation	ext_hal_r/activation	ercspn_r/activation	intobl_r/activation	extobl_r/activation	
          0.00000000	         -2.74217545	         -0.94576772	          6.66152754	          0.00000000	          0.90245579	         -0.01244142	        -17.42773762	          2.49451733	         19.64764564	         28.30841450	          2.21830304	         -2.26091721	        -15.88493252	         -5.94797022	          2.97340146	          4.94764985	         10.84350922	          0.05047635	         -5.41911375	          1.91462879	         23.07014986	         -0.24304492	          0.09379173	          1.82387100	         -4.02191316	         21.40622298	        -13.82378439	         19.32975877	        -33.19612672	        -13.63535551	          6.85549507	         54.60299275	         15.72219203	         86.51662706	         86.51662706	          0.62353254	          0.08645062	          0.06075328	          0.78048608	          0.38862970	          0.08645465	          0.05000093	          0.05000004	          0.05000003	          0.06001169	          0.12485760	          0.05000001	          0.05000001	          0.05000004	          0.05000016	          0.05000008	          0.49193836	          0.05000027	          0.05000006	          0.05000040	          0.05000014	          0.05000008	          0.50837565	          0.69328851	          0.05000001	          0.05000023	          0.07202820	          0.40701523	          0.12865965	          0.15590885	          0.13355136	          0.12964983	          0.14833457	          0.12775647	          0.53763317	          0.99715055	          0.99972275	          0.05000001	          0.05000001	          0.76413905	          0.05000001	          0.05000000	          0.06001183	          0.05000000	          0.21320095	          0.14212112	          0.06001177	          0.06001177	          0.09080587	          0.06001183	          0.06001179	          0.06001168	          0.38005188	          0.06001177	          0.06001177	          0.06001174	          0.05000032	          0.07886407	          0.05000143	          0.05351089	          0.21199692	          0.13247471	          0.05000006	          0.05000212	          0.06001193	          0.06577165	          0.13718489	          0.07077539	          0.05000043	          0.05000020	          0.44016778	          0.21533268	          0.16827930	          0.08645070	          0.05000027	          0.05000031	          0.05000026	          0.05000000	          0.05000000	          0.05000000	          0.05908468	          0.72739418	          0.38069204	          0.25567222	          0.07202826	          0.30827414	          0.30666637	          0.75030858	          0.53040738	          0.05000000	          0.09788014	          0.15125461	
          0.01201412	         -2.77495692	         -1.20150322	          6.80300911	          0.01976829	          0.90173356	         -0.01187044	        -17.66283628	          2.03950167	         19.10090431	         27.60079235	          2.88707828	         -2.13863798	        -16.81728228	         -6.33118002	          0.59233653	          3.94588078	         11.38179833	         -0.05489698	         -6.57102527	          2.40969877	         26.81965779	          0.27744769	          0.18144569	          2.05685554	         -4.32058212	         21.13133198	        -13.78756830	         19.15336763	        -33.93485930	        -13.52474785	          7.15631785	         55.12431991	         15.17302188	         86.51662706	         86.51662706	          0.51950857	          0.07202807	          0.06001177	          0.65027755	          0.32379460	          0.07203144	          0.05000060	          0.05000028	          0.06001163	          0.05000001	          0.10402764	          0.07202814	          0.25180989	          0.06001194	          0.06001221	          0.06005434	          0.40986828	          0.05000015	          0.06001171	          0.06001202	          0.06001191	          0.06001188	          0.42356332	          0.61478001	          0.06001178	          0.06001188	          0.06001176	          0.33911286	          0.14737729	          0.15742392	          0.13886306	          0.10802034	          0.12358790	          0.10644285	          0.44793980	          0.99841775	          0.85338836	          0.19693609	          0.05000001	          0.76273228	          0.05000002	          0.05000000	          0.05000006	          0.06376905	          0.19978354	          0.11841105	          0.05000001	          0.05000002	          0.26977634	          0.05000007	          0.05000004	          0.05000003	          0.32701903	          0.05000002	          0.05000001	          0.05000000	          0.05000021	          0.07202866	          0.18224610	          0.21582798	          0.17662962	          0.15370296	          0.06001179	          0.07203200	          0.05000022	          0.05479901	          0.16781789	          0.14876562	          0.06001238	          0.06001205	          0.45736169	          0.17940876	          0.14020583	          0.07202824	          0.22820261	          0.22667148	          0.18645721	          0.06001177	          0.06001178	          0.06036871	          0.05000000	          0.67908411	          0.31718129	          0.32605355	          0.06001185	          0.27431166	          0.46564868	          0.81138570	          0.73925145	          0.05000000	          0.08155079	          0.12602079	
          0.02402824	         -2.80691794	         -1.55870833	          6.93593809	          0.03947487	          0.90083526	         -0.01130148	        -17.80668931	          1.53725588	         18.42764627	         26.83220931	          3.46517647	         -1.89995962	        -17.87311907	         -6.78387033	         -1.84183801	          2.19439418	         11.68922460	         -0.13858690	         -7.57819250	          3.08043902	         30.03781647	          0.99999451	          0.24490024	          2.38161980	         -4.59825609	         20.77279821	        -13.72348356	         18.92702984	        -34.47363820	        -13.47748011	          8.09981551	         55.58798348	         14.39351141	         86.51662706	         86.51662706	          0.43283896	          0.06001163	          0.05000001	          0.54179180	          0.26977595	          0.06001444	          0.06005989	          0.05000018	          0.05000006	          0.07202342	          0.08667278	          0.06001176	          0.25312831	          0.05000022	          0.05000060	          0.05003555	          0.34149049	          0.25986965	          0.05000013	          0.05000026	          0.05000015	          0.05000013	          0.43524193	          0.67995130	          0.05000001	          0.05000016	          0.05000002	          0.28253864	          0.12279034	          0.13116088	          0.11569654	          0.08999930	          0.10296973	          0.08868498	          0.37320997	          0.95857861	          0.71101778	          0.45286548	          0.26687885	          0.73790193	          0.47249812	          0.10376128	          0.05000000	          0.12044933	          0.16645364	          0.09865653	          0.39894273	          0.47249807	          0.59453220	          0.47249763	          0.47249770	          0.41431683	          0.31116894	          0.27692281	          0.17572495	          0.27678860	          0.06001183	          0.06001212	          0.15184198	          0.17982142	          0.14716253	          0.17803244	          0.05000008	          0.06001498	          0.32861283	          0.38727189	          0.31817883	          0.17044113	          0.05000054	          0.05000026	          0.38106007	          0.14947813	          0.18837973	          0.06001176	          0.19013155	          0.18885586	          0.15535054	          0.05000000	          0.05000002	          0.05029739	          0.06373583	          0.79113073	          0.31498862	          0.38853741	          0.05000007	          0.30727197	          0.38796449	          0.89526905	          0.85521542	          0.06962375	          0.08645074	          0.10499674	
          0.03604236	         -2.84206405	         -1.94413009	          7.03058846	          0.05849042	          0.90016684	         -0.01057697	        -17.66525022	          1.10833956	         17.67747027	         26.19696717	          4.05088397	         -1.77512262	        -19.37784920	         -7.13134643	         -4.19777344	         -0.86021182	         11.84311781	         -0.28618742	         -8.11553089	          3.67556843	         31.71575901	          1.42999897	          0.22664054	          2.70866536	         -4.84764596	         20.42275806	        -13.65855853	         18.69384352	        -34.67210448	        -13.45800682	          9.58248794	         55.87216696	         13.37441261	         86.51662706	         86.51662706	          0.36062842	          0.05000010	          0.05000017	          0.45140465	          0.22476924	          0.05000231	          0.05004352	          0.05001241	          0.07202848	          0.06000776	          0.07221319	          0.05000006	          0.25401187	          0.37210232	          0.12457653	          0.12453996	          0.28451991	          0.21651565	          0.05000021	          0.07079408	          0.09902467	          0.11792078	          0.36263050	          0.65270865	          0.10368927	          0.05002181	          0.05000095	          0.23540271	          0.12453795	          0.12453796	          0.11587453	          0.07498471	          0.08579128	          0.07388966	          0.31094736	          0.79865899	          0.59239923	          0.46147251	          0.22235545	          0.66398468	          0.39367129	          0.08645080	          0.05000000	          0.17666798	          0.13916071	          0.08219765	          0.50300901	          0.62326149	          0.67337128	          0.39367100	          0.39367106	          0.35489383	          0.25925662	          0.23072379	          0.14640877	          0.23061195	          0.05000010	          0.05000035	          0.14945322	          0.29279207	          0.33449202	          0.26689594	          0.05000011	          0.05000288	          0.27379053	          0.47304124	          0.39978039	          0.30652216	          0.05000001	          0.05000001	          0.31748789	          0.12454074	          0.15695243	          0.05000002	          0.26257770	          0.27824119	          0.20929888	          0.05000000	          0.05000001	          0.05000000	          0.05310279	          0.66985068	          0.26243908	          0.46205069	          0.16154700	          0.25600984	          0.58984310	          0.94184655	          0.90858646	          0.15717547	          0.07202816	          0.08748013	
